PathFileType	3	(X/Y/Z)	D:\minhoCalibration\240510\subject4_KPNP\preferred\preferred17.trc
DataRate	CameraRate	NumFrames	NumMarkers	Units	OrigDataRate	OrigDataStartFrame	OrigNumFrames
200.0	200.0	34	10	mm	200.0	260	92	
Frame#	Time	Left_Ankle_Outer1			Left_Ankle_Inner1			Left_Knee_Outer1			Left_Knee_Inner1			Left_Wrist1			Right_Wrist1			Right_Knee_Inner1			Right_Knee_Outer1			Right_Ankle_Inner1			Right_Ankle_Outer1			
		X1	Y1	Z1	X2	Y2	Z2	X3	Y3	Z3	X4	Y4	Z4	X5	Y5	Z5	X6	Y6	Z6	X7	Y7	Z7	X8	Y8	Z8	X9	Y9	Z9	X10	Y10	Z10	
260	1.29	-606.56366	453.69647	1412.0195	-530.21497	403.95105	1359.1935	-704.77411	679.15918	975.8775	-595.78113	648.95972	957.25574	-588.66797	1056.7045	1220.1716	-310.85464	914.55615	1398.9445	-389.6098	509.52716	1148.8925	-317.79916	511.35516	1233.9475	-549.70953	63.636826	1267.4658	-506.61169	71.986877	1305.4053
261	1.295	-615.36047	468.25055	1390.504	-537.43005	418.64691	1340.7662	-692.6944	697.18555	953.04224	-583.02087	666.25342	938.38977	-582.60352	1064.7534	1213.1627	-313.13953	916.93378	1401.0879	-390.6214	511.16293	1150.472	-319.17828	513.1842	1236.1002	-550.09857	65.272598	1267.3296	-507.06934	72.931839	1304.9189
262	1.3	-625.12256	483.38104	1368.996	-545.14929	433.72964	1322.6842	-679.53918	716.16199	930.78174	-569.77081	683.86823	921.14136	-576.69208	1072.6903	1206.6569	-315.68512	919.16553	1403.2791	-390.71045	512.65698	1151.1901	-320.39551	515.12463	1238.3998	-550.2384	66.590248	1266.4791	-507.87903	74.205101	1304.7058
263	1.305	-635.82178	498.92108	1347.1891	-553.97253	449.26193	1304.8593	-665.05017	735.41199	909.52948	-553.94904	702.30334	903.646	-570.58472	1080.8536	1200.4274	-318.53986	921.17694	1405.5768	-390.65344	514.01074	1151.9839	-321.47162	516.93671	1240.6316	-550.39764	68.106354	1265.3649	-508.37527	75.751717	1304.0125
264	1.31	-646.5705	514.6051	1324.8734	-564.0918	464.68982	1286.7793	-649.06927	755.10089	889.25024	-539.8916	719.44196	888.90057	-563.99072	1088.5875	1194.5133	-322.16238	922.60205	1408.4645	-390.84369	515.64526	1153.2566	-322.2507	518.8454	1242.8523	-551.16907	69.745407	1264.0438	-509.32162	77.411751	1303.5914
265	1.315	-658.62494	531.19873	1302.0771	-574.71643	479.99442	1268.8218	-632.37622	775.30475	870.29395	-522.84229	737.61017	874.27576	-557.63361	1096.2278	1189.2573	-326.31943	924.0249	1410.8483	-389.39563	517.47003	1153.4386	-322.62183	520.67719	1245.1346	-551.21368	71.407242	1262.4567	-510.03091	79.071716	1302.5822
266	1.32	-671.05463	548.50848	1278.7631	-586.7218	496.1228	1250.3413	-614.42657	795.63141	852.51758	-506.44489	754.92163	861.77759	-550.62036	1104.1586	1183.731	-330.54419	925.86316	1414.0985	-388.48953	518.74683	1154.1755	-323.32724	522.41272	1246.9237	-551.00574	73.531181	1260.6902	-510.99689	80.84494	1301.434
267	1.325	-683.93842	566.74628	1254.7902	-599.30182	512.17078	1230.9219	-595.65479	816.0918	836.3996	-489.927	771.79083	851.17444	-543.53882	1112.0084	1178.4503	-334.52713	926.60376	1416.0432	-385.19189	520.396	1153.5364	-323.65753	524.29242	1248.8274	-551.15491	75.83979	1258.9607	-511.71976	82.747932	1300.4183
268	1.33	-696.74615	585.49567	1229.8486	-612.75189	528.83978	1210.7345	-574.70892	835.43079	822.60699	-472.62689	788.16809	841.23926	-536.77405	1119.4495	1174.1001	-339.61246	927.63098	1419.1447	-381.52206	521.67407	1152.4381	-324.07684	526.19031	1250.5747	-550.92816	77.681061	1256.4814	-512.50012	84.748466	1299.2886
269	1.335	-709.75287	605.16235	1204.1471	-627.16687	545.30914	1189.2192	-554.45886	856.03326	809.09796	-454.3165	804.83063	832.90088	-529.93427	1126.7871	1170.29	-345.30124	928.03339	1421.7705	-377.72382	523.57068	1152.3639	-324.18509	528.15314	1252.2769	-551.1427	80.559349	1254.6487	-513.12183	86.974518	1297.9869
270	1.34	-722.51636	625.36267	1177.2524	-641.81476	561.98718	1166.5569	-533.87579	876.06244	798.05682	-437.69437	818.95782	826.02283	-523.40826	1133.8219	1167.0608	-352.07364	927.95215	1423.3647	-373.85559	524.97705	1152.3961	-324.69873	530.2063	1253.5529	-550.83746	82.926605	1252.3253	-513.76282	89.275726	1296.959
271	1.345	-734.71008	646.24646	1149.0988	-656.80151	579.32733	1141.926	-512.31262	895.47668	788.69678	-420.5658	833.17072	820.58221	-516.63934	1140.7482	1164.1793	-359.40204	927.72705	1425.9321	-370.5249	526.36536	1152.5248	-325.13269	532.3244	1254.5261	-550.45093	85.150093	1249.4817	-513.98572	91.697746	1295.4272
272	1.35	-747.12042	668.08075	1119.9626	-672.00134	597.56287	1114.7942	-490.68134	913.81445	781.37585	-404.42291	846.19519	816.44812	-509.98105	1147.2594	1161.5228	-367.73874	926.84314	1426.515	-366.31924	528.05939	1152.121	-325.56976	534.45612	1255.5115	-549.724	88.461998	1247.9601	-514.05951	94.161781	1293.5657
273	1.355	-758.40753	690.25494	1089.2826	-687.09528	615.85193	1086.7145	-469.25803	931.38165	775.97913	-387.86163	858.62	813.20172	-502.93414	1153.4062	1159.1018	-376.64606	926.26105	1427.3711	-362.05243	529.58948	1151.6252	-326.1387	536.82159	1256.2833	-548.18475	90.751846	1245.3196	-513.94543	96.580605	1291.5752
274	1.36	-769.03729	713.20135	1056.9747	-701.77234	635.18793	1056.2018	-447.58304	948.30176	772.18903	-372.75732	869.7901	811.1084	-496.19794	1159.2087	1157.1136	-386.08527	925.54474	1427.7789	-358.45587	531.47314	1151.5468	-326.81793	539.07324	1256.7042	-547.15247	93.690887	1242.712	-513.89252	98.914581	1289.199
275	1.365	-778.83679	737.06641	1022.9086	-715.86603	655.29272	1023.9645	-426.50409	963.84375	770.04987	-358.69342	879.96802	809.77106	-489.36859	1164.5067	1155.5222	-395.99017	924.75586	1427.8286	-354.84338	533.40021	1151.0828	-327.76337	541.55835	1256.7916	-546.57654	95.814537	1238.7922	-513.80286	101.19039	1286.5073
276	1.37	-787.52509	761.07904	987.23047	-728.28967	676.23334	990.33105	-406.00458	978.16986	769.17621	-345.58173	889.48108	808.87231	-482.31253	1169.4353	1154.2009	-405.99463	923.81665	1427.2406	-352.04584	535.32831	1150.7965	-328.83267	544.01135	1256.7426	-545.1051	97.932137	1235.2673	-513.75391	103.22334	1283.3835
277	1.375	-794.34656	785.40356	949.74121	-739.57288	697.88159	954.12598	-386.67972	991.2132	769.85535	-333.7977	897.95264	808.36139	-475.4715	1173.8191	1153.349	-416.25687	922.80957	1426.6147	-349.19043	537.42877	1150.1226	-329.98917	546.54425	1256.6654	-543.96069	99.751854	1231.5104	-513.64771	105.0861	1280.3361
278	1.38	-799.18115	810.22003	910.12555	-749.14636	720.27045	915.80719	-368.09546	1002.3086	771.40015	-322.95538	905.64038	808.12445	-468.98849	1177.7366	1152.8444	-426.63763	921.74066	1425.7343	-347.55017	539.65686	1149.7505	-331.32428	548.88062	1256.5641	-543.14288	101.42836	1228.1531	-513.67444	106.77934	1277.1948
279	1.385	-802.36206	835.80945	868.97064	-756.64368	743.3559	875.04889	-351.00259	1011.8673	774.01086	-313.24554	912.42999	808.09918	-462.54837	1180.9028	1152.5778	-437.08221	920.69012	1423.9648	-346.52618	541.81616	1149.2686	-333.08252	551.08978	1256.301	-543.07806	103.08607	1224.1655	-514.17548	108.34628	1273.9692
280	1.39	-802.64746	861.98364	826.77289	-761.24353	767.10632	831.79462	-335.21207	1020.0635	777.49548	-305.00372	918.32068	808.3429	-456.41516	1183.936	1152.6919	-447.34125	919.79333	1421.6935	-345.82346	543.75024	1148.5339	-335.29337	553.16254	1256.1885	-542.87866	104.48892	1220.6356	-515.29095	109.87047	1270.7101
281	1.395	-800.47949	888.38947	783.18378	-763.87665	792.54102	787.43024	-321.10873	1026.7665	781.54315	-298.43253	923.45917	808.68628	-451.01721	1186.5031	1153.1292	-457.3132	919.07465	1419.1017	-345.77097	545.33673	1147.7316	-337.95117	555.12354	1255.9642	-543.55444	106.09942	1216.4014	-516.94836	111.30063	1267.5839
282	1.4	-794.54016	915.23792	738.29559	-762.17358	817.07239	741.22021	-309.11533	1032.3981	785.96655	-293.26648	928.08929	808.66608	-446.18469	1189.0137	1153.85	-466.75244	918.49036	1416.1256	-346.18286	546.55365	1146.6204	-341.28015	556.97229	1255.7365	-544.73444	107.0747	1213.4136	-518.99359	112.42815	1264.6367
283	1.405	-785.40204	942.32776	692.47137	-756.09558	841.41315	693.69208	-299.22021	1036.3158	790.578	-289.64102	932.07043	808.30298	-442.23688	1191.1211	1154.6565	-475.18732	918.00867	1412.5366	-346.32141	547.72784	1144.9487	-345.05563	558.4726	1255.0625	-545.9826	107.80269	1210.2468	-521.21729	113.31601	1261.7743
284	1.41	-772.71021	969.66302	646.65833	-747.9375	867.68018	646.47015	-291.55588	1039.7194	794.59454	-287.51697	936.03827	807.32709	-439.14661	1193.4878	1155.4934	-482.7034	917.83685	1408.4757	-348.27969	548.64679	1143.7417	-348.81445	559.66418	1254.2544	-547.53162	108.48698	1207.4885	-523.54047	113.88918	1258.9922
285	1.415	-755.68005	996.51239	599.76892	-735.38062	893.70941	598.29437	-286.33008	1042.3608	797.74756	-287.12173	939.69635	805.71887	-436.54294	1195.9484	1156.1649	-488.98416	917.72644	1404.0802	-350.00824	549.40155	1141.7476	-352.77753	560.26886	1252.4811	-548.61426	108.48435	1203.9764	-525.8866	114.16287	1256.1963
286	1.42	-735.4577	1023.8503	554.52472	-719.37939	920.42371	551.26593	-283.82864	1044.4958	800.15497	-288.28839	943.43127	803.27533	-435.14844	1198.5024	1156.9592	-493.84119	917.69983	1399.4756	-352.04834	549.79596	1139.2587	-356.51572	560.54077	1250.7599	-550.68243	108.46303	1200.9341	-528.29327	114.29523	1253.3748
287	1.425	-710.84607	1050.7661	509.90433	-694.1535	945.32922	500.8595	-283.94138	1045.6827	801.40356	-290.82663	947.10638	800.00555	-433.95694	1200.6473	1157.2515	-497.33603	917.61792	1395.109	-354.61169	550.1264	1136.5562	-359.90805	560.38715	1248.5081	-552.29529	108.50823	1197.9093	-530.73511	114.34729	1250.489
288	1.43	-681.85931	1076.8989	466.71567	-671.83032	972.96619	458.51532	-286.01633	1046.442	801.56287	-295.14539	950.75726	795.74091	-433.49808	1203.3491	1157.6584	-499.28918	917.43103	1390.946	-357.46756	550.21753	1133.6917	-362.81522	560.06415	1245.9354	-554.18402	108.17662	1194.6783	-533.19592	114.30276	1247.639
289	1.435	-648.69312	1102.0894	425.86356	-640.91595	999.80322	415.98969	-289.80493	1047.311	800.62225	-301.05286	954.60309	790.43817	-433.40918	1205.9307	1157.9587	-499.85971	917.07019	1387.6193	-360.63678	550.07355	1130.6975	-365.14148	559.56256	1242.9519	-555.95245	107.76118	1191.3953	-535.50671	114.09283	1244.7092
290	1.44	-611.86127	1126.0406	388.42593	-605.95599	1023.0319	375.99991	-295.1976	1048.7917	798.83923	-308.42831	958.94073	784.17535	-433.58212	1207.84	1157.9233	-499.86627	916.74011	1385.6245	-363.97964	549.91241	1127.5967	-366.86752	559.047	1239.652	-557.75287	107.40229	1188.457	-537.84387	113.89867	1241.9038
291	1.445	-571.23126	1147.8136	355.08063	-568.40125	1045.6833	341.55185	-301.6163	1050.8799	796.1485	-317.44208	963.78229	777.23193	-433.92969	1210.1583	1157.7147	-498.94836	916.16467	1383.4594	-367.08032	549.48163	1124.2382	-367.98914	558.76703	1236.0361	-559.51385	106.86867	1185.7043	-539.97766	113.64828	1239.3505
292	1.45	-527.76416	1167.2723	326.20517	-527.45416	1064.7456	311.39478	-309.08066	1053.4502	792.66309	-327.83044	969.31256	769.96448	-435.36337	1211.8715	1157.4713	-497.70309	915.76141	1381.4901	-369.83875	548.93945	1120.6691	-368.74866	558.5191	1232.2489	-560.9054	106.35755	1183.2059	-541.78729	113.42422	1236.9615
293	1.455	-482.62683	1182.8844	303.5741	-484.90781	1081.2366	287.80603	-317.54593	1057.0814	787.94336	-339.80756	975.43109	762.91791	-437.10135	1213.2826	1156.6396	-496.00302	915.64783	1379.6351	-372.48746	548.2699	1117.1714	-369.25757	558.24237	1228.3947	-561.83685	105.9807	1180.9253	-543.50726	113.49816	1235.183
